<svg xmlns="http://www.w3.org/2000/svg" width="1024" height="1024" viewBox="0 0 1024 1024">
<g>
<path d="M 657.12 589.06 C650.86,590.13 642.75,591.29 639.08,591.63 L 632.42 592.25 L 631.25 573.37 C629.46,544.62 624.37,522.01 615.06,501.48 C613.25,497.47 612.58,495.00 613.31,495.01 C615.64,495.03 636.93,505.88 643.01,510.15 L 649.20 514.50 L 653.20 510.00 C658.51,504.01 668.38,489.15 672.66,480.66 C696.62,433.22 691.61,376.25 659.76,333.89 C655.88,328.73 653.56,325.17 654.60,325.97 C689.42,352.71 718.48,394.08 729.78,433.00 C735.20,451.65 735.75,454.15 737.57,468.70 C740.21,489.65 737.66,519.36 731.93,534.42 C730.87,537.21 730.00,539.95 730.00,540.50 C730.00,541.05 733.38,543.02 737.50,544.87 C741.63,546.73 745.00,548.63 745.00,549.11 C745.00,550.58 733.95,558.83 724.40,564.49 C715.88,569.54 711.84,571.57 699.62,576.88 C690.71,580.76 668.65,587.08 657.12,589.06 ZM 556.50 714.39 C543.96,716.49 530.06,717.45 532.00,716.09 C532.83,715.51 533.03,715.02 532.46,715.02 C530.86,714.99 530.95,711.23 532.57,710.61 C534.20,709.99 534.52,705.44 533.00,704.50 C532.33,704.08 532.33,703.26 533.00,702.01 C533.55,700.97 534.00,698.79 534.00,697.15 C534.00,694.81 534.77,693.69 537.51,691.99 C539.44,690.80 541.42,689.07 541.90,688.16 C543.00,686.06 544.42,678.13 544.16,675.50 C544.05,674.40 544.98,671.96 546.23,670.08 C550.28,663.97 550.97,662.54 550.99,660.14 C550.99,658.85 552.12,656.45 553.50,654.82 C557.21,650.41 556.85,648.62 552.42,649.45 C547.09,650.45 534.13,648.12 532.97,645.95 C532.21,644.53 531.19,644.30 527.76,644.76 C523.88,645.27 523.62,645.18 524.87,643.66 C525.63,642.75 527.15,642.00 528.26,642.00 C529.36,642.00 531.22,640.93 532.38,639.62 C533.55,638.32 537.35,636.28 540.83,635.10 C564.15,627.18 588.64,607.91 603.10,586.10 L 610.00 575.69 L 610.00 585.26 C610.00,598.05 607.69,609.45 602.50,622.25 C601.85,623.84 602.63,624.00 611.21,624.00 C629.48,624.00 655.60,619.25 674.65,612.46 C683.76,609.22 695.74,603.49 707.89,596.58 C711.41,594.58 714.47,593.14 714.70,593.37 C715.35,594.02 704.57,614.36 699.36,622.31 C678.02,654.82 644.67,682.97 608.96,698.60 C591.41,706.28 574.48,711.38 556.50,714.39 ZM 647.03 406.94 C646.46,408.00 645.10,408.81 644.01,408.73 C641.91,408.57 634.80,401.54 635.76,400.57 C636.08,400.26 635.86,400.00 635.28,400.00 C634.71,400.00 634.01,399.15 633.74,398.10 C633.46,397.06 631.50,395.40 629.37,394.40 C627.24,393.41 624.38,391.52 623.00,390.21 C609.70,377.52 590.21,365.71 573.11,359.98 C558.07,354.94 551.72,353.94 531.00,353.35 C517.33,352.96 511.20,352.43 510.50,351.56 C509.95,350.88 508.50,349.80 507.29,349.15 C506.03,348.48 505.30,347.37 505.61,346.58 C506.28,344.83 511.52,342.59 512.92,343.45 C514.14,344.20 518.26,342.23 517.62,341.20 C517.39,340.81 518.93,338.73 521.06,336.56 C523.79,333.78 524.64,332.27 523.94,331.43 C522.72,329.96 522.10,318.00 523.25,318.00 C523.71,318.00 523.97,316.17 523.84,313.93 C523.68,311.26 524.10,309.55 525.05,308.95 C526.14,308.26 526.17,308.03 525.19,308.02 C524.47,308.01 524.18,307.52 524.54,306.94 C524.90,306.35 524.46,305.06 523.56,304.07 C522.41,302.79 521.86,300.05 521.71,294.71 C521.58,290.55 521.18,286.85 520.81,286.48 C519.66,285.33 521.12,283.00 522.98,283.00 C523.96,283.00 526.44,282.30 528.50,281.44 C531.67,280.11 533.81,280.03 542.62,280.92 C561.92,282.86 583.02,289.37 598.46,298.15 C622.98,312.09 640.17,329.60 653.36,354.06 C661.80,369.72 666.61,387.83 665.42,399.50 C665.03,403.35 664.51,405.93 664.27,405.24 C664.03,404.55 663.42,404.24 662.91,404.55 C662.41,404.86 662.00,404.64 662.00,404.06 C662.00,402.71 658.32,402.67 657.50,404.00 C657.16,404.55 654.90,405.00 652.48,405.00 C649.14,405.00 647.82,405.47 647.03,406.94 Z" fill="rgb(75,188,204)"/>
<path d="M 531.82 716.36 C528.99,716.42 525.90,716.48 522.50,716.52 L 521.31 716.53 C505.25,716.72 499.48,716.79 493.81,716.10 C490.50,715.69 487.22,715.02 481.95,713.96 C461.68,709.89 439.85,700.57 425.83,689.99 C409.73,677.85 394.44,659.24 386.11,641.67 C376.62,621.65 373.07,603.19 374.92,583.55 C375.55,576.92 376.63,569.30 377.32,566.61 L 378.57 561.72 L 383.72 572.30 C390.34,585.91 394.09,591.71 402.50,601.31 C419.31,620.51 444.99,634.52 473.50,640.06 C485.85,642.46 508.81,642.69 521.12,640.53 C526.97,639.51 532.82,637.97 538.57,635.96 C535.84,637.12 533.30,638.60 532.38,639.62 C531.22,640.93 529.36,642.00 528.26,642.00 C527.15,642.00 525.63,642.75 524.87,643.66 C523.62,645.18 523.88,645.27 527.76,644.76 C531.19,644.30 532.21,644.53 532.97,645.95 C534.13,648.12 547.09,650.45 552.42,649.45 C556.85,648.62 557.21,650.41 553.50,654.82 C552.12,656.45 550.99,658.85 550.99,660.14 C550.97,662.54 550.28,663.97 546.23,670.08 C544.98,671.96 544.05,674.40 544.16,675.50 C544.42,678.13 543.00,686.06 541.90,688.16 C541.42,689.07 539.44,690.80 537.51,691.99 C534.77,693.69 534.00,694.81 534.00,697.15 C534.00,698.79 533.55,700.97 533.00,702.01 C532.33,703.26 532.33,704.08 533.00,704.50 C534.52,705.44 534.20,709.99 532.57,710.61 C530.95,711.23 530.86,714.99 532.46,715.02 C533.03,715.02 532.83,715.51 532.00,716.09 C531.85,716.19 531.80,716.28 531.82,716.36 ZM 647.03 406.94 C647.82,405.47 649.14,405.00 652.48,405.00 C654.90,405.00 657.16,404.55 657.50,404.00 C658.32,402.67 662.00,402.71 662.00,404.06 C662.00,404.64 662.41,404.86 662.91,404.55 C663.42,404.24 664.03,404.55 664.27,405.24 C664.51,405.93 665.03,403.35 665.42,399.50 C665.73,396.47 665.63,393.00 665.18,389.25 C667.93,406.62 667.18,425.15 662.89,443.75 C661.71,448.84 660.42,453.00 660.01,453.00 C659.61,453.00 658.47,450.41 657.49,447.25 C654.91,438.98 648.56,424.81 643.74,416.59 C634.88,401.47 621.82,387.75 606.61,377.08 C612.61,381.18 618.21,385.64 623.00,390.21 C624.38,391.52 627.24,393.41 629.37,394.40 C631.50,395.40 633.46,397.06 633.74,398.10 C634.01,399.15 634.71,400.00 635.28,400.00 C635.86,400.00 636.08,400.26 635.76,400.57 C634.80,401.54 641.91,408.57 644.01,408.73 C645.10,408.81 646.46,408.00 647.03,406.94 ZM 416.30 532.75 C417.44,534.26 415.74,534.30 411.76,532.84 C409.37,531.97 409.20,531.66 410.47,530.39 C411.26,529.59 411.64,528.17 411.30,527.22 C410.77,525.74 412.22,527.35 416.30,532.75 ZM 395.92 681.69 C396.15,681.86 395.92,681.96 395.42,681.92 C393.36,681.73 386.86,676.28 385.45,673.56 C384.21,671.18 384.98,671.62 389.72,676.02 C392.90,678.97 395.69,681.52 395.92,681.69 ZM 661.75 373.94 C659.67,367.31 656.82,360.48 653.36,354.06 C651.45,350.51 649.44,347.10 647.35,343.83 C652.88,352.27 657.42,361.00 660.03,368.56 C660.65,370.34 661.22,372.13 661.75,373.94 ZM 542.56 634.49 C553.55,630.21 564.13,624.26 573.75,617.00 C563.86,624.56 553.12,630.66 542.56,634.49 ZM 556.50 714.39 C562.53,713.38 568.43,712.14 574.29,710.64 C568.60,712.11 562.72,713.39 556.50,714.55 C554.22,714.97 551.56,715.31 548.29,715.59 C550.97,715.25 553.77,714.85 556.50,714.39 ZM 581.21 290.14 C569.00,285.50 555.42,282.21 542.62,280.92 C556.04,282.27 569.01,285.39 581.21,290.14 ZM 604.75 301.91 C607.00,303.31 609.20,304.77 611.36,306.29 C609.22,304.79 607.02,303.33 604.75,301.91 Z" fill="rgb(74,111,185)"/>
<path d="M 308.81 448.02 C305.36,451.31 302.40,454.00 302.25,454.00 C301.29,454.00 309.93,423.81 313.11,416.00 C325.35,385.98 345.53,357.16 368.44,336.96 C404.09,305.52 442.52,287.57 488.50,280.87 C499.72,279.24 532.55,279.18 544.27,280.78 C552.06,281.84 559.58,283.38 566.81,285.39 C558.97,283.25 550.88,281.75 542.62,280.92 C533.81,280.03 531.67,280.11 528.50,281.44 C526.44,282.30 523.96,283.00 522.98,283.00 C521.12,283.00 519.66,285.33 520.81,286.48 C521.18,286.85 521.58,290.55 521.71,294.71 C521.86,300.05 522.41,302.79 523.56,304.07 C524.46,305.06 524.90,306.35 524.54,306.94 C524.18,307.52 524.47,308.01 525.19,308.02 C526.17,308.03 526.14,308.26 525.05,308.95 C524.10,309.55 523.68,311.26 523.84,313.93 C523.97,316.17 523.71,318.00 523.25,318.00 C522.10,318.00 522.72,329.96 523.94,331.43 C524.64,332.27 523.79,333.78 521.06,336.56 C518.93,338.73 517.39,340.81 517.62,341.20 C518.26,342.23 514.14,344.20 512.92,343.45 C511.52,342.59 506.28,344.83 505.61,346.58 C505.30,347.37 506.03,348.48 507.29,349.15 C508.50,349.80 509.95,350.88 510.50,351.56 C511.20,352.43 517.33,352.96 531.00,353.35 C532.85,353.41 534.59,353.46 536.23,353.52 C522.90,353.26 507.57,354.05 499.29,355.83 C481.21,359.71 460.60,368.75 447.47,378.56 C439.55,384.47 426.93,396.98 420.93,404.83 C414.83,412.83 406.92,428.25 403.92,438.00 C402.65,442.12 401.29,445.88 400.91,446.34 C399.33,448.26 396.50,427.31 396.50,413.67 L 396.50 399.85 L 392.20 400.49 C387.03,401.27 369.23,407.85 360.68,412.15 C342.73,421.18 321.84,435.63 308.81,448.02 ZM 390.37 676.42 C391.00,677.06 391.60,677.68 392.13,678.25 C391.38,677.56 390.57,676.80 389.72,676.02 C384.98,671.62 384.21,671.18 385.45,673.56 C386.27,675.15 388.83,677.67 391.23,679.53 C389.30,678.21 387.12,676.62 385.74,675.47 C384.77,674.66 383.61,674.00 383.16,674.00 C381.63,674.00 363.51,658.35 356.93,651.34 C353.32,647.49 347.91,641.23 344.91,637.42 C334.50,624.20 322.42,604.92 323.72,603.61 C324.06,603.28 323.86,603.00 323.28,603.00 C322.05,603.00 315.51,588.37 311.21,576.00 C307.23,564.53 303.73,549.20 304.45,546.34 C304.80,544.95 304.59,544.00 303.94,544.00 C303.24,544.00 303.08,542.91 303.50,541.00 C303.95,538.95 303.77,538.00 302.94,538.00 C302.06,538.00 301.87,536.22 302.25,531.50 C302.53,527.92 302.37,525.00 301.88,525.00 C301.40,525.00 301.00,521.91 301.00,518.14 L 301.00 511.28 L 294.85 510.64 C291.47,510.29 286.82,510.00 284.52,510.00 C282.22,510.00 280.05,509.71 279.70,509.36 C278.44,508.10 287.44,496.89 297.86,486.75 C314.34,470.71 329.46,460.13 349.97,450.32 C359.87,445.58 374.19,440.00 376.46,440.00 C377.19,440.00 378.09,441.65 378.47,443.68 C379.71,450.31 386.00,470.98 390.09,481.85 C394.74,494.25 404.59,514.14 411.89,525.92 L 415.34 531.49 C412.00,527.10 410.82,525.87 411.30,527.22 C411.64,528.17 411.26,529.59 410.47,530.39 C409.20,531.66 409.37,531.97 411.76,532.84 C412.47,533.10 413.10,533.31 413.67,533.48 C402.75,531.24 393.78,528.56 385.27,525.00 L 375.55 520.94 L 373.90 523.14 C370.97,527.02 363.94,541.92 361.47,549.50 C349.04,587.56 354.25,624.95 376.65,658.56 C384.15,669.81 384.98,670.89 390.37,676.42 ZM 627.90 395.54 C634.03,402.09 639.39,409.17 643.74,416.59 C644.65,418.14 645.62,419.90 646.60,421.80 C641.32,412.20 634.97,403.27 627.90,395.54 ZM 664.71 434.63 C666.35,424.90 667.02,415.23 666.73,405.79 C667.06,412.74 666.88,419.50 666.13,425.50 C665.79,428.26 665.29,431.44 664.71,434.63 ZM 600.96 373.40 C602.88,374.58 604.76,375.81 606.61,377.08 C609.10,378.83 611.54,380.66 613.90,382.56 C609.53,379.16 605.25,376.12 600.96,373.40 ZM 415.76 533.90 C416.29,533.93 416.59,533.82 416.64,533.58 L 417.00 534.16 ZM 662.13 446.84 C661.22,450.51 660.42,453.00 660.01,453.00 C660.33,453.00 661.20,450.42 662.13,446.84 ZM 604.75 301.91 C604.14,301.53 603.53,301.15 602.91,300.77 C607.11,303.29 611.17,306.03 615.07,308.99 C613.74,307.98 612.37,307.00 610.99,306.03 C608.97,304.62 606.89,303.25 604.75,301.91 ZM 394.68 681.71 C394.87,681.79 395.05,681.85 395.20,681.88 C395.20,681.91 395.19,681.92 395.16,681.91 C395.07,681.90 394.91,681.83 394.68,681.71 Z" fill="rgb(142,114,234)"/>
<path d="M 0.00 512.00 L 0.00 0.00 L 512.00 0.00 L 1024.00 0.00 L 1024.00 512.00 L 1024.00 1024.00 L 512.00 1024.00 L 0.00 1024.00 L 0.00 512.00 ZM 556.50 714.55 C575.81,710.97 591.84,706.09 608.96,698.60 C644.67,682.97 678.02,654.82 699.36,622.31 C704.57,614.36 715.35,594.02 714.70,593.37 C714.47,593.14 711.41,594.58 707.89,596.58 C695.74,603.49 683.76,609.22 674.65,612.46 C655.60,619.25 629.48,624.00 611.21,624.00 C602.63,624.00 601.85,623.84 602.50,622.25 C607.69,609.45 610.00,598.05 610.00,585.26 L 610.00 575.69 L 603.10 586.10 C584.61,613.98 553.02,634.96 521.12,640.53 C508.81,642.69 485.85,642.46 473.50,640.06 C444.99,634.52 419.31,620.51 402.50,601.31 C394.09,591.71 390.34,585.91 383.72,572.30 L 378.57 561.72 L 377.32 566.61 C376.63,569.30 375.55,576.92 374.92,583.55 C373.07,603.19 376.62,621.65 386.11,641.67 C394.44,659.24 409.73,677.85 425.83,689.99 C439.85,700.57 461.68,709.89 481.95,713.96 C496.48,716.88 495.85,716.84 522.50,716.52 C540.46,716.30 550.03,715.75 556.50,714.55 ZM 390.37 676.42 C384.98,670.89 384.15,669.81 376.65,658.56 C354.25,624.95 349.04,587.56 361.47,549.50 C363.94,541.92 370.97,527.02 373.90,523.14 L 375.55 520.94 L 385.27 525.00 C393.80,528.57 402.80,531.25 413.75,533.49 L 417.00 534.16 L 411.89 525.92 C404.59,514.14 394.74,494.25 390.09,481.85 C386.00,470.98 379.71,450.31 378.47,443.68 C378.09,441.65 377.19,440.00 376.46,440.00 C374.19,440.00 359.87,445.58 349.97,450.32 C329.46,460.13 314.34,470.71 297.86,486.75 C287.44,496.89 278.44,508.10 279.70,509.36 C280.05,509.71 282.22,510.00 284.52,510.00 C286.82,510.00 291.47,510.29 294.85,510.64 L 301.00 511.28 L 301.00 518.14 C301.00,521.91 301.40,525.00 301.88,525.00 C302.37,525.00 302.53,527.92 302.25,531.50 C301.87,536.22 302.06,538.00 302.94,538.00 C303.77,538.00 303.95,538.95 303.50,541.00 C303.08,542.91 303.24,544.00 303.94,544.00 C304.59,544.00 304.80,544.95 304.45,546.34 C303.73,549.20 307.23,564.53 311.21,576.00 C315.51,588.37 322.05,603.00 323.28,603.00 C323.86,603.00 324.06,603.28 323.72,603.61 C322.42,604.92 334.50,624.20 344.91,637.42 C347.91,641.23 353.32,647.49 356.93,651.34 C363.51,658.35 381.63,674.00 383.16,674.00 C383.61,674.00 384.77,674.66 385.74,675.47 C388.49,677.76 394.43,681.82 395.16,681.91 C395.53,681.96 393.37,679.49 390.37,676.42 ZM 657.12 589.06 C668.65,587.08 690.71,580.76 699.62,576.88 C711.84,571.57 715.88,569.54 724.40,564.49 C733.95,558.83 745.00,550.58 745.00,549.11 C745.00,548.63 741.63,546.73 737.50,544.87 C733.38,543.02 730.00,541.05 730.00,540.50 C730.00,539.95 730.87,537.21 731.93,534.42 C737.66,519.36 740.21,489.65 737.57,468.70 C735.75,454.15 735.20,451.65 729.78,433.00 C718.48,394.08 689.42,352.71 654.60,325.97 C653.56,325.17 655.88,328.73 659.76,333.89 C691.61,376.25 696.62,433.22 672.66,480.66 C668.38,489.15 658.51,504.01 653.20,510.00 L 649.20 514.50 L 643.01 510.15 C636.93,505.88 615.64,495.03 613.31,495.01 C612.58,495.00 613.25,497.47 615.06,501.48 C624.37,522.01 629.46,544.62 631.25,573.37 L 632.42 592.25 L 639.08 591.63 C642.75,591.29 650.86,590.13 657.12,589.06 ZM 308.81 448.02 C321.84,435.63 342.73,421.18 360.68,412.15 C369.23,407.85 387.03,401.27 392.20,400.49 L 396.50 399.85 L 396.50 413.67 C396.50,427.31 399.33,448.26 400.91,446.34 C401.29,445.88 402.65,442.12 403.92,438.00 C406.92,428.25 414.83,412.83 420.93,404.83 C426.93,396.98 439.55,384.47 447.47,378.56 C460.60,368.75 481.21,359.71 499.29,355.83 C512.83,352.92 545.23,352.64 556.92,355.34 C579.16,360.46 595.88,368.48 614.36,382.92 C633.48,397.85 649.60,421.91 657.49,447.25 C658.47,450.41 659.61,453.00 660.01,453.00 C661.07,453.00 664.82,436.15 666.13,425.50 C668.26,408.36 665.77,385.15 660.03,368.56 C655.07,354.21 643.19,335.68 630.75,322.86 C608.34,299.77 579.04,285.52 544.27,280.78 C532.55,279.18 499.72,279.24 488.50,280.87 C442.52,287.57 404.09,305.52 368.44,336.96 C345.53,357.16 325.35,385.98 313.11,416.00 C309.93,423.81 301.29,454.00 302.25,454.00 C302.40,454.00 305.36,451.31 308.81,448.02 Z" fill="rgb(253,253,253)"/>
</g>
</svg>