<svg width="120" height="120" viewBox="0 0 120 120" fill="none" xmlns="http://www.w3.org/2000/svg">
  <rect width="120" height="120" rx="20" fill="#F7A600"/>
  <path d="M35 45C35 41.6863 37.6863 39 41 39H51C54.3137 39 57 41.6863 57 45V52C57 55.3137 54.3137 58 51 58H41C37.6863 58 35 55.3137 35 52V45Z" fill="white"/>
  <path d="M35 68C35 64.6863 37.6863 62 41 62H51C54.3137 62 57 64.6863 57 68V75C57 78.3137 54.3137 81 51 81H41C37.6863 81 35 78.3137 35 75V68Z" fill="white"/>
  <path d="M63 45C63 41.6863 65.6863 39 69 39H79C82.3137 39 85 41.6863 85 45V52C85 55.3137 82.3137 58 79 58H69C65.6863 58 63 55.3137 63 52V45Z" fill="white"/>
  <path d="M63 68C63 64.6863 65.6863 62 69 62H79C82.3137 62 85 64.6863 85 68V75C85 78.3137 82.3137 81 79 81H69C65.6863 81 63 78.3137 63 75V68Z" fill="white"/>
</svg>